External Loads File
version=1
nRows=85
nColumns=13
Range=5.000000e-03-10 seconds
endheader
time 	forceRightX 	forceRightY 	forceRightZ 	pointRightX 	pointRightY 	pointRightZ 	forceLeftX 	forceLeftY 	forceLeftZ 	pointLeftX 	pointLeftY 	pointLeftZ 		
2.505000 84.594244 574.490958 -0.000000 0.321510 0.168976 -0.094274 -33.205817 -36.711187 -0.000000 0.177579 0.474517 -0.336982
2.510000 90.354662 558.937653 -0.000000 0.315386 0.165411 -0.094238 -36.495541 -22.182599 -0.000000 0.183560 0.478797 -0.337119
2.515000 95.541036 544.754691 -0.000000 0.308943 0.162248 -0.094187 -39.785177 -6.138038 -0.000000 0.189426 0.482664 -0.337299
2.520000 101.285875 531.452071 -0.000000 0.302227 0.159467 -0.094151 -43.103408 11.566106 -0.000000 0.195727 0.486175 -0.337256
2.525000 106.768890 518.662635 -0.000000 0.295366 0.157070 -0.094202 -46.379691 30.754201 -0.000000 0.201819 0.489428 -0.337461
2.530000 112.616719 505.537400 -0.000000 0.288310 0.154952 -0.094364 -49.501908 51.154796 -0.000000 0.207951 0.492352 -0.337612
2.535000 118.757717 491.179762 -0.000000 0.281126 0.153265 -0.094425 -52.389323 72.336838 -0.000000 0.214132 0.494877 -0.337864
2.540000 125.035474 474.606605 -0.000000 0.273725 0.151941 -0.094486 -55.036241 93.910593 -0.000000 0.220136 0.497080 -0.338016
2.545000 131.147026 454.866097 -0.000000 0.266183 0.151054 -0.094560 -57.512121 115.624226 -0.000000 0.225933 0.499009 -0.338307
2.550000 137.051804 431.050273 -0.000000 0.258628 0.150555 -0.094647 -59.806863 137.413231 -0.000000 0.231822 0.500626 -0.338439
2.555000 141.931615 402.736063 -0.000000 0.251090 0.150371 -0.094687 -62.097912 159.202003 -0.000000 0.237448 0.501787 -0.338696
2.560000 145.711023 369.623494 -0.000000 0.243561 0.150574 -0.094751 -64.343102 181.089151 -0.000000 0.243012 0.502618 -0.339005
2.565000 147.892828 331.983094 -0.000000 0.236083 0.151144 -0.094820 -66.732243 203.247176 -0.000000 0.248338 0.502991 -0.339344
2.570000 148.404316 290.379903 -0.000000 0.228694 0.152128 -0.094851 -69.416006 226.107700 -0.000000 0.253509 0.503001 -0.339724
2.575000 147.256863 245.733649 -0.000000 0.221376 0.153301 -0.094856 -72.632254 250.241720 -0.000000 0.258522 0.502514 -0.340044
2.580000 144.499677 199.275051 -0.000000 0.214115 0.154909 -0.094835 -76.757704 276.145452 -0.000000 0.263274 0.501848 -0.340490
2.585000 140.457907 152.325038 -0.000000 0.206999 0.156948 -0.094796 -81.996819 304.133691 -0.000000 0.267975 0.500613 -0.340940
2.590000 135.493032 106.325423 -0.000000 0.199964 0.159195 -0.094710 -88.449161 334.242257 -0.000000 0.272791 0.498533 -0.340830
2.595000 129.816623 62.981239 -0.000000 0.192981 0.161825 -0.094522 -96.728656 366.107601 -0.000000 0.277415 0.496085 -0.341060
2.600000 123.876489 23.657781 -0.000000 0.186122 0.165013 -0.094432 -106.880953 399.310789 -0.000000 0.282083 0.493252 -0.341261
2.605000 118.039731 -10.537415 -0.000000 0.179087 0.168506 -0.094800 -118.742992 433.303766 -0.000000 0.286751 0.490019 -0.341279
2.610000 112.678483 -38.670603 -0.000000 0.172373 0.172179 -0.094845 -132.718356 467.211950 -0.000000 0.291537 0.486340 -0.341184
2.615000 108.191748 -60.395616 -0.000000 0.165826 0.176248 -0.094900 -148.702842 500.158961 -0.000000 0.296180 0.482225 -0.341305
2.620000 104.797149 -75.954686 -0.000000 0.159401 0.180552 -0.094962 -165.942761 531.430764 -0.000000 0.300856 0.477268 -0.341410
2.625000 102.676066 -85.849650 -0.000000 0.153136 0.185152 -0.094816 -184.439598 560.226917 -0.000000 0.305708 0.472303 -0.341620
2.630000 101.905291 -90.943510 -0.000000 0.147146 0.190102 -0.094806 -204.125540 586.043541 -0.000000 0.310429 0.466921 -0.341600
2.635000 102.330172 -92.416037 -0.000000 0.141357 0.195410 -0.094874 -224.160464 608.965861 -0.000000 0.315157 0.461129 -0.341684
2.640000 103.796218 -91.321236 -0.000000 0.135776 0.201066 -0.094913 -244.534334 628.998886 -0.000000 0.319752 0.455260 -0.341737
2.645000 105.922808 -88.714177 -0.000000 0.130576 0.206938 -0.094953 -264.519931 646.482313 -0.000000 0.324236 0.448842 -0.341735
2.650000 108.366780 -85.352150 -0.000000 0.125713 0.213064 -0.094887 -283.985133 661.592052 -0.000000 0.328486 0.442166 -0.341727
2.655000 110.758427 -81.878339 -0.000000 0.121190 0.219364 -0.094906 -302.364528 674.824875 -0.000000 0.332692 0.435276 -0.341678
2.660000 112.829222 -78.762843 -0.000000 0.117067 0.225980 -0.095014 -319.325817 686.785125 -0.000000 0.336682 0.428076 -0.341656
2.665000 114.343035 -76.381130 -0.000000 0.113125 0.232901 -0.094832 -334.368783 698.317431 -0.000000 0.340392 0.420620 -0.341465
2.670000 115.202774 -74.801532 -0.000000 0.109616 0.240026 -0.095001 -347.978227 709.834879 -0.000000 0.343899 0.413080 -0.341417
2.675000 115.210860 -74.154268 -0.000000 0.106383 0.247359 -0.094910 -359.389602 722.279689 -0.000000 0.347270 0.405334 -0.341522
2.680000 114.313048 -74.344201 -0.000000 0.103544 0.254902 -0.094925 -368.676023 736.090158 -0.000000 0.350232 0.397205 -0.341527
2.685000 112.607032 -75.121587 -0.000000 0.101128 0.262506 -0.095006 -376.815458 751.146741 -0.000000 0.352944 0.389066 -0.341511
2.690000 110.053287 -76.554747 -0.000000 0.099081 0.270315 -0.095125 -382.834191 768.193651 -0.000000 0.355363 0.380618 -0.341554
2.695000 106.799016 -78.487217 -0.000000 0.097361 0.278371 -0.095106 -387.221178 787.076162 -0.000000 0.357469 0.372170 -0.341475
2.700000 102.984703 -80.786457 -0.000000 0.096073 0.286463 -0.095121 -390.131441 807.605034 -0.000000 0.359262 0.363640 -0.341393
2.705000 98.642055 -83.440026 -0.000000 0.095192 0.294754 -0.095185 -390.463131 829.996541 -0.000000 0.360720 0.354964 -0.341284
2.710000 93.922830 -86.242794 -0.000000 0.094806 0.303126 -0.095144 -388.437077 853.663588 -0.000000 0.361882 0.346241 -0.341148
2.715000 88.911858 -89.032398 -0.000000 0.094724 0.311587 -0.095147 -383.953731 878.080607 -0.000000 0.362679 0.337578 -0.341001
2.720000 83.660182 -91.652253 -0.000000 0.094778 0.320109 -0.095302 -376.816230 902.695267 -0.000000 0.363108 0.328960 -0.340818
2.725000 78.043801 -94.104930 -0.000000 0.095491 0.328567 -0.095382 -365.117313 927.564295 -0.000000 0.363247 0.319768 -0.340707
2.730000 72.414969 -96.028533 -0.000000 0.096585 0.337183 -0.095359 -351.737024 950.730190 -0.000000 0.363012 0.311167 -0.340603
2.735000 66.598188 -97.545064 -0.000000 0.098099 0.345724 -0.095417 -334.808659 972.080472 -0.000000 0.362439 0.302471 -0.340557
2.740000 60.623895 -98.581741 -0.000000 0.099874 0.354263 -0.095505 -315.105676 990.434517 -0.000000 0.361556 0.293998 -0.340888
2.745000 54.339647 -99.157715 -0.000000 0.102073 0.362757 -0.095612 -291.990774 1005.150440 -0.000000 0.360157 0.285615 -0.340233
2.750000 47.684663 -99.230919 -0.000000 0.104857 0.371197 -0.095545 -265.933529 1015.367859 -0.000000 0.358608 0.277366 -0.340178
2.755000 40.649529 -98.781988 -0.000000 0.107802 0.379398 -0.095689 -238.057654 1020.301044 -0.000000 0.356741 0.269153 -0.340051
2.760000 33.160995 -97.862535 -0.000000 0.111123 0.387582 -0.095775 -208.936008 1019.530495 -0.000000 0.354606 0.261237 -0.339934
2.765000 25.045038 -96.539349 -0.000000 0.115154 0.395788 -0.095679 -178.003616 1012.959539 -0.000000 0.352233 0.253489 -0.339784
2.770000 16.518199 -94.734487 -0.000000 0.119005 0.403742 -0.095906 -148.310636 999.954335 -0.000000 0.349542 0.245966 -0.339621
2.775000 7.473449 -92.451508 -0.000000 0.123280 0.411542 -0.096082 -118.633605 980.875088 -0.000000 0.346645 0.238500 -0.339519
2.780000 -1.891357 -89.647840 -0.000000 0.128068 0.419176 -0.096138 -89.883284 955.940505 -0.000000 0.343471 0.231358 -0.339412
2.785000 -11.361819 -86.346090 -0.000000 0.133232 0.426489 -0.096350 -62.257607 925.679759 -0.000000 0.340011 0.224209 -0.339373
2.790000 -20.624691 -82.653317 -0.000000 0.138543 0.433728 -0.096445 -36.534715 890.697437 -0.000000 0.336265 0.217246 -0.339500
2.795000 -29.425629 -78.749653 -0.000000 0.144190 0.440906 -0.096617 -12.833114 851.666986 -0.000000 0.332288 0.210576 -0.339401
2.800000 -37.474494 -74.889923 -0.000000 0.150092 0.447734 -0.096916 7.923161 809.205894 -0.000000 0.328138 0.204250 -0.339277
2.805000 -44.820012 -71.185382 -0.000000 0.156455 0.454601 -0.096755 27.663183 763.866819 -0.000000 0.323682 0.197945 -0.339219
2.810000 -51.145248 -67.914229 -0.000000 0.162681 0.460785 -0.097677 43.428976 716.262170 -0.000000 0.318965 0.192088 -0.339131
2.815000 -56.677172 -64.941853 -0.000000 0.169328 0.466488 -0.097933 57.268272 666.817622 -0.000000 0.314007 0.186470 -0.339045
2.820000 -61.489937 -62.092467 -0.000000 0.176121 0.471889 -0.097868 68.922777 615.962094 -0.000000 0.308761 0.181213 -0.338949
2.825000 -65.736120 -59.020112 -0.000000 0.183147 0.477075 -0.098378 78.599480 564.001033 -0.000000 0.303247 0.176317 -0.338842
2.830000 -69.531335 -55.333325 -0.000000 0.190384 0.481841 -0.098591 86.181752 511.103141 -0.000000 0.297393 0.171681 -0.338774
2.835000 -72.918683 -50.697366 -0.000000 0.197699 0.486269 -0.098890 91.159378 457.544911 -0.000000 0.291253 0.167573 -0.338656
2.840000 -75.989034 -44.731364 -0.000000 0.205158 0.490244 -0.099105 93.792474 404.026436 -0.000000 0.284792 0.163820 -0.338551
2.845000 -78.792679 -37.132810 -0.000000 0.212692 0.493697 -0.099305 94.332828 351.950406 -0.000000 0.278026 0.160536 -0.338485
2.850000 -81.409113 -27.548926 -0.000000 0.220401 0.496687 -0.099408 93.628874 302.781675 -0.000000 0.270904 0.157753 -0.338451
2.855000 -83.847651 -15.753458 -0.000000 0.228093 0.499215 -0.099637 92.154954 257.793695 -0.000000 0.263484 0.155400 -0.338393
2.860000 -86.095160 -1.519977 -0.000000 0.235819 0.501152 -0.099826 90.581770 217.814642 -0.000000 0.255732 0.153708 -0.338272
2.865000 -88.063622 15.298717 -0.000000 0.243707 0.502687 -0.100087 89.445871 183.350443 -0.000000 0.247656 0.152370 -0.338162
2.870000 -89.633531 34.584321 -0.000000 0.251498 0.503688 -0.100330 88.827695 154.789167 -0.000000 0.239347 0.151671 -0.337981
2.875000 -90.713034 56.110012 -0.000000 0.258993 0.504053 -0.100217 88.813214 132.238245 -0.000000 0.230895 0.151455 -0.337831
2.880000 -91.184707 79.649078 -0.000000 0.266403 0.504003 -0.100240 89.514879 115.456427 -0.000000 0.222423 0.151816 -0.337531
2.885000 -90.983221 104.941989 -0.000000 0.273702 0.503387 -0.100220 90.865843 104.004908 -0.000000 0.213943 0.152529 -0.337301
2.890000 -90.146784 131.846494 -0.000000 0.280826 0.502209 -0.100211 92.730795 97.239766 -0.000000 0.205510 0.153805 -0.337091
2.895000 -88.826107 160.427156 -0.000000 0.287695 0.500515 -0.100208 94.952291 94.323244 -0.000000 0.197131 0.155534 -0.336966
2.900000 -87.195989 190.980170 -0.000000 0.294336 0.498294 -0.100156 97.406620 94.293813 -0.000000 0.188861 0.157766 -0.336828
2.905000 -85.495268 223.912498 -0.000000 0.300629 0.495481 -0.100172 99.987393 96.258722 -0.000000 0.180682 0.160419 -0.336760
2.910000 -83.866249 259.700904 -0.000000 0.306696 0.492071 -0.100108 102.707532 99.384149 -0.000000 0.172682 0.163601 -0.336509
2.915000 -82.599271 298.659373 -0.000000 0.312443 0.488359 -0.100107 105.583358 102.986544 -0.000000 0.164856 0.167457 -0.336226
2.920000 -81.986709 340.835673 -0.000000 0.317822 0.484034 -0.100010 108.667435 106.429536 -0.000000 0.157258 0.171742 -0.335808
2.925000 -82.016842 385.912410 -0.000000 0.323146 0.479162 -0.100035 112.093104 109.030749 -0.000000 0.149821 0.176423 -0.335569
